<svg width="40" height="40" viewBox="0 0 40 40" fill="none" xmlns="http://www.w3.org/2000/svg">
<path d="M40 20C40 25.3043 37.8929 30.3914 34.1421 34.1421C30.3914 37.8929 25.3043 40 20 40C14.6957 40 9.60859 37.8929 5.85786 34.1421C2.10714 30.3914 0 25.3043 0 20C0 14.6957 2.10714 9.60859 5.85786 5.85786C9.60859 2.10714 14.6957 0 20 0C25.3043 0 30.3914 2.10714 34.1421 5.85786C37.8929 9.60859 40 14.6957 40 20Z" fill="#69A6AB"/>
<path d="M37.8688 20C37.8688 22.3466 37.4066 24.6702 36.5086 26.8381C35.6106 29.006 34.2944 30.9759 32.6352 32.6351C30.9759 34.2944 29.0061 35.6106 26.8381 36.5086C24.6702 37.4066 22.3466 37.8687 20.0001 37.8687C15.261 37.8687 10.716 35.9862 7.365 32.6351C4.01397 29.2841 2.13138 24.7391 2.13138 20C2.13138 15.261 4.01397 10.716 7.365 7.36497C10.716 4.01394 15.261 2.13135 20.0001 2.13135C22.3466 2.13135 24.6702 2.59354 26.8381 3.49152C29.0061 4.38951 30.9759 5.70571 32.6352 7.36497C34.2944 9.02423 35.6106 10.9941 36.5086 13.162C37.4066 15.3299 37.8688 17.6535 37.8688 20Z" fill="#69A6AB"/>
<path d="M12.9757 13.314L10.5853 16.9584C10.5754 16.9739 10.5618 16.9866 10.5457 16.9955C10.5296 17.0044 10.5115 17.0093 10.493 17.0096L7.98372 17.014C7.8466 17.014 7.81547 16.9566 7.89033 16.8417L12.9601 9.09585C12.9701 9.08042 12.9838 9.06773 13 9.0589C13.0161 9.05008 13.0342 9.0454 13.0526 9.04529C13.071 9.04518 13.0892 9.04964 13.1054 9.05827C13.1217 9.0669 13.1355 9.07943 13.1458 9.09474L18.3812 16.9395C18.4197 16.9973 18.4042 17.027 18.3345 17.0285C18.3137 17.0285 18.2934 17.0233 18.2733 17.0129C18.2578 17.0048 18.2407 17.0011 18.2222 17.0018L15.6995 17.0307C15.6811 17.031 15.6629 17.0267 15.6466 17.0181C15.6303 17.0096 15.6164 16.9971 15.6062 16.9818L13.1613 13.314C13.1512 13.2986 13.1374 13.286 13.1212 13.2773C13.105 13.2685 13.0869 13.264 13.0685 13.264C13.0501 13.264 13.032 13.2685 13.0158 13.2773C12.9996 13.286 12.9858 13.2986 12.9757 13.314Z" fill="white"/>
<path d="M31.3662 13.0691C31.3662 14.1545 30.9351 15.1954 30.1676 15.9629C29.4001 16.7304 28.3591 17.1616 27.2737 17.1616C26.1883 17.1616 25.1474 16.7304 24.3799 15.9629C23.6124 15.1954 23.1812 14.1545 23.1812 13.0691C23.1812 11.9837 23.6124 10.9427 24.3799 10.1752C25.1474 9.40774 26.1883 8.97656 27.2737 8.97656C28.3591 8.97656 29.4001 9.40774 30.1676 10.1752C30.9351 10.9427 31.3662 11.9837 31.3662 13.0691Z" fill="#17181B"/>
<path d="M27.2721 14.8719C28.2558 14.8719 29.0532 14.0744 29.0532 13.0908C29.0532 12.1071 28.2558 11.3097 27.2721 11.3097C26.2884 11.3097 25.491 12.1071 25.491 13.0908C25.491 14.0744 26.2884 14.8719 27.2721 14.8719Z" fill="#69A6AB"/>
<path d="M27.9492 21.2431V18.5626C27.9492 18.5531 27.953 18.5441 27.9596 18.5374C27.9663 18.5307 27.9754 18.527 27.9848 18.527H30.2484C30.2578 18.527 30.2669 18.5307 30.2736 18.5374C30.2802 18.5441 30.284 18.5531 30.284 18.5626V25.4957C30.284 25.5051 30.2802 25.5142 30.2736 25.5208C30.2669 25.5275 30.2578 25.5313 30.2484 25.5313H27.9848C27.9754 25.5313 27.9663 25.5275 27.9596 25.5208C27.953 25.5142 27.9492 25.5051 27.9492 25.4957V23.6212C27.9492 23.6118 27.9455 23.6027 27.9388 23.596C27.9321 23.5894 27.9231 23.5856 27.9136 23.5856H20.9805C20.9711 23.5856 20.962 23.5819 20.9554 23.5752C20.9487 23.5685 20.9449 23.5595 20.9449 23.55V21.3142C20.9449 21.3048 20.9487 21.2958 20.9554 21.2891C20.962 21.2824 20.9711 21.2787 20.9805 21.2787H27.9136C27.9231 21.2787 27.9321 21.2749 27.9388 21.2682C27.9455 21.2616 27.9492 21.2525 27.9492 21.2431Z" fill="#17181B"/>
<path d="M11.4318 24.5344C11.451 24.5388 11.4688 24.5482 11.4832 24.5617C11.4977 24.5751 11.5083 24.5922 11.5141 24.6111C13.4741 31.1106 21.6525 32.9306 26.1841 27.8319C26.1972 27.8172 26.214 27.8062 26.2328 27.8001C26.2516 27.794 26.2716 27.7931 26.2909 27.7975L28.5845 28.2989C28.6025 28.3028 28.6192 28.3111 28.6332 28.3231C28.6472 28.3351 28.658 28.3504 28.6646 28.3676C28.6712 28.3848 28.6735 28.4034 28.6711 28.4217C28.6688 28.4399 28.6619 28.4574 28.6512 28.4723C27.0146 30.7515 24.863 32.2105 22.1961 32.8494C19.5167 33.4921 16.5571 33.044 14.2246 31.6443C11.4303 29.9669 9.70481 27.4773 9.04811 24.1753C9.04451 24.1571 9.04551 24.1383 9.051 24.1207C9.05649 24.103 9.0663 24.087 9.07955 24.0741C9.09281 24.0611 9.10907 24.0517 9.12688 24.0467C9.14468 24.0416 9.16347 24.0411 9.18152 24.0452L11.4318 24.5344Z" fill="white"/>
</svg>
