<svg width="262" height="60" viewBox="0 0 262 60" fill="none" xmlns="http://www.w3.org/2000/svg">
<rect width="262" height="60" rx="30" fill="white"/>
<path d="M101.924 39.768C101.401 38.48 101.14 35.316 101.14 30.276C101.14 26.3933 101.345 23.7707 101.756 22.408C101.793 21.8293 102.101 21.3813 102.68 21.064C103.147 20.8213 103.697 20.7 104.332 20.7C105.004 20.7 105.592 20.8493 106.096 21.148C106.693 21.484 107.001 21.9693 107.02 22.604C107.356 23.4253 107.533 23.8453 107.552 23.864C107.813 24.312 108.168 24.5547 108.616 24.592C109.12 24.5547 109.503 24.284 109.764 23.78C109.932 23.3507 110.1 22.912 110.268 22.464C110.287 21.96 110.595 21.5587 111.192 21.26C111.677 21.0173 112.2 20.896 112.76 20.896C114.216 20.896 115.065 21.456 115.308 22.576C115.775 24.7227 116.008 27.7373 116.008 31.62C116.008 35.1667 115.775 37.7987 115.308 39.516C115.196 39.9453 114.869 40.2907 114.328 40.552C113.88 40.7573 113.404 40.86 112.9 40.86C111.836 40.86 111.08 40.468 110.632 39.684C110.539 39.404 110.492 38.9933 110.492 38.452C110.492 37.8733 110.548 36.996 110.66 35.82C110.791 34.644 110.856 33.7667 110.856 33.188C110.856 32.2733 110.697 31.7973 110.38 31.76C110.268 31.76 110.147 31.956 110.016 32.348C109.867 32.8333 109.727 33.1787 109.596 33.384C109.353 33.7573 108.999 33.944 108.532 33.944C108.028 33.944 107.645 33.58 107.384 32.852C107.141 32.124 106.955 31.76 106.824 31.76C106.395 31.872 106.18 32.4413 106.18 33.468C106.18 34.084 106.273 35.0173 106.46 36.268C106.647 37.5 106.74 38.424 106.74 39.04C106.74 39.3387 106.712 39.5533 106.656 39.684C106.227 40.4493 105.405 40.832 104.192 40.832C102.96 40.832 102.204 40.4773 101.924 39.768ZM118.682 29.1C119.018 28.484 119.84 28.176 121.146 28.176C122.565 28.176 123.47 28.5213 123.862 29.212C124.161 29.7533 124.31 31.6107 124.31 34.784C124.31 37.584 124.189 39.376 123.946 40.16C123.685 40.776 122.78 41.084 121.23 41.084C119.812 41.084 118.981 40.804 118.738 40.244C118.328 39.3107 118.122 37.276 118.122 34.14C118.122 31.284 118.309 29.604 118.682 29.1ZM118.066 23.556C118.197 21.5213 119.392 20.5227 121.65 20.56C122.509 20.5787 123.144 20.7747 123.554 21.148C123.965 21.5027 124.273 22.1 124.478 22.94C124.553 23.2387 124.59 23.528 124.59 23.808C124.59 24.7973 124.254 25.572 123.582 26.132C122.929 26.692 122.098 26.972 121.09 26.972C120.194 26.972 119.448 26.6267 118.85 25.936C118.272 25.2453 118.01 24.452 118.066 23.556ZM132.23 39.88C132.249 40.608 131.428 40.972 129.766 40.972C128.086 40.972 127.19 40.636 127.078 39.964C126.668 37.5373 126.462 34.616 126.462 31.2C126.462 27.728 126.677 25.544 127.106 24.648C127.368 23.8453 128.03 23.444 129.094 23.444C129.561 23.444 129.981 23.5373 130.354 23.724C130.821 23.948 131.073 24.2653 131.11 24.676C131.11 24.9187 131.129 25.068 131.166 25.124C131.222 25.236 131.362 25.3013 131.586 25.32C131.978 25.3573 132.324 25.236 132.622 24.956C132.977 24.6013 133.36 24.34 133.77 24.172C134.48 23.8733 135.198 23.724 135.926 23.724C137.289 23.724 138.465 24.1813 139.454 25.096C140.462 25.992 140.957 27.112 140.938 28.456C141.088 29.7627 141.162 31.2653 141.162 32.964C141.162 36.3053 140.938 38.732 140.49 40.244C140.21 40.7667 139.389 41.028 138.026 41.028C136.794 41.028 136.104 40.72 135.954 40.104C135.786 39.9173 135.702 39.3107 135.702 38.284C135.702 37.8547 135.712 37.2107 135.73 36.352C135.768 35.4747 135.786 34.8213 135.786 34.392C135.786 31.424 135.329 30.0147 134.414 30.164C134.228 30.2013 133.742 30.2947 132.958 30.444C132.492 30.5373 132.212 30.9293 132.118 31.62C132.081 31.8067 132.062 32.3387 132.062 33.216C132.062 32.8987 132.118 35.12 132.23 39.88ZM144.229 29.072C143.539 28.9227 143.193 28.1573 143.193 26.776C143.193 25.3947 143.539 24.6107 144.229 24.424C144.453 24.312 144.743 24.256 145.097 24.256C145.377 24.256 145.779 24.3027 146.301 24.396C146.843 24.4707 147.253 24.508 147.533 24.508C147.832 24.508 148.047 24.452 148.177 24.34C148.401 24.004 148.513 23.7613 148.513 23.612C148.308 22.6973 148.224 21.9787 148.261 21.456C148.317 20.8213 149.12 20.504 150.669 20.504C151.211 20.504 151.733 20.5693 152.237 20.7C152.984 20.9053 153.367 21.204 153.385 21.596C153.404 21.8947 153.367 22.464 153.273 23.304C153.18 24.1253 153.133 24.3307 153.133 23.92C153.133 24.4053 153.768 24.564 155.037 24.396C156.157 24.2467 156.913 24.2653 157.305 24.452C157.567 24.564 157.763 24.956 157.893 25.628C158.005 26.1133 158.061 26.5707 158.061 27C158.061 27.9707 157.856 28.5773 157.445 28.82C157.109 29.1 156.288 29.1467 154.981 28.96C153.787 28.7733 153.105 28.8387 152.937 29.156C152.601 29.5293 152.433 30.6213 152.433 32.432C152.433 34.224 152.676 35.2133 153.161 35.4C153.367 35.4747 153.544 35.512 153.693 35.512C153.899 35.512 154.225 35.3627 154.673 35.064C155.14 34.7467 155.579 34.588 155.989 34.588C156.195 34.588 156.419 34.616 156.661 34.672C157.651 35.0827 158.145 35.8573 158.145 36.996C158.145 38.1533 157.511 39.0773 156.241 39.768C154.86 40.5147 153.413 40.888 151.901 40.888C150.035 40.888 148.709 40.1507 147.925 38.676C147.627 38.116 147.477 37.2667 147.477 36.128C147.477 35.4373 147.561 34.4013 147.729 33.02C147.916 31.6387 148.009 30.6027 148.009 29.912C148.009 29.4267 147.935 29.1467 147.785 29.072C147.449 28.8853 147.104 28.792 146.749 28.792C146.525 28.792 146.18 28.8573 145.713 28.988C145.265 29.1 144.929 29.156 144.705 29.156C144.537 29.156 144.379 29.128 144.229 29.072Z" fill="#69ABA7"/>
</svg>
