<svg width="40" height="40" viewBox="0 0 40 40" fill="none" xmlns="http://www.w3.org/2000/svg">
<path fill-rule="evenodd" clip-rule="evenodd" d="M20 0C8.95431 0 0 8.95431 0 20C0 31.0457 8.95431 40 20 40C31.0457 40 40 31.0457 40 20C40 8.95431 31.0457 0 20 0ZM15.6024 9.39745C16.7402 9.34567 17.1038 9.33301 20.0007 9.33301H19.9973C22.8951 9.33301 23.2574 9.34567 24.3952 9.39745C25.5307 9.44945 26.3063 9.62923 26.9863 9.89301C27.6885 10.1652 28.2819 10.5297 28.8752 11.123C29.4686 11.7159 29.833 12.311 30.1063 13.0126C30.3686 13.6908 30.5486 14.466 30.6019 15.6015C30.653 16.7393 30.6663 17.1029 30.6663 19.9998C30.6663 22.8967 30.653 23.2594 30.6019 24.3972C30.5486 25.5323 30.3686 26.3076 30.1063 26.9861C29.833 27.6874 29.4686 28.2825 28.8752 28.8754C28.2825 29.4688 27.6883 29.8341 26.987 30.1066C26.3083 30.3703 25.5323 30.5501 24.3967 30.6021C23.2589 30.6539 22.8965 30.6666 19.9993 30.6666C17.1026 30.6666 16.7393 30.6539 15.6015 30.6021C14.4662 30.5501 13.6908 30.3703 13.0122 30.1066C12.311 29.8341 11.7159 29.4688 11.1232 28.8754C10.5301 28.2825 10.1657 27.6874 9.89301 26.9859C9.62946 26.3076 9.44968 25.5325 9.39745 24.3969C9.3459 23.2592 9.33301 22.8967 9.33301 19.9998C9.33301 17.1029 9.34634 16.7391 9.39723 15.6013C9.44834 14.4662 9.62834 13.6908 9.89279 13.0124C10.1661 12.311 10.5306 11.7159 11.1239 11.123C11.7168 10.5299 12.3119 10.1655 13.0135 9.89301C13.6917 9.62923 14.4668 9.44945 15.6024 9.39745Z" fill="#69A6AB"/>
<path fill-rule="evenodd" clip-rule="evenodd" d="M19.0435 11.2546C19.2293 11.2543 19.4292 11.2544 19.6449 11.2545L20.0004 11.2546C22.8484 11.2546 23.186 11.2648 24.3107 11.316C25.3507 11.3635 25.9151 11.5373 26.2911 11.6833C26.7889 11.8766 27.1438 12.1077 27.5169 12.4811C27.8903 12.8544 28.1214 13.21 28.3151 13.7078C28.4611 14.0833 28.6352 14.6478 28.6825 15.6878C28.7336 16.8122 28.7447 17.15 28.7447 19.9967C28.7447 22.8434 28.7336 23.1812 28.6825 24.3056C28.6349 25.3457 28.4611 25.9101 28.3151 26.2857C28.1218 26.7834 27.8903 27.1379 27.5169 27.511C27.1436 27.8843 26.7891 28.1155 26.2911 28.3088C25.9156 28.4555 25.3507 28.6288 24.3107 28.6764C23.1862 28.7275 22.8484 28.7386 20.0004 28.7386C17.1521 28.7386 16.8146 28.7275 15.6901 28.6764C14.6501 28.6284 14.0857 28.4546 13.7094 28.3086C13.2117 28.1152 12.8561 27.8841 12.4828 27.5108C12.1094 27.1375 11.8783 26.7828 11.6845 26.2848C11.5385 25.9092 11.3645 25.3448 11.3172 24.3048C11.2661 23.1803 11.2559 22.8425 11.2559 19.994C11.2559 17.1456 11.2661 16.8096 11.3172 15.6851C11.3647 14.6451 11.5385 14.0806 11.6845 13.7046C11.8779 13.2069 12.1094 12.8513 12.4828 12.478C12.8561 12.1046 13.2117 11.8735 13.7094 11.6797C14.0854 11.5331 14.6501 11.3597 15.6901 11.312C16.6741 11.2675 17.0555 11.2542 19.0435 11.252V11.2546ZM25.6941 13.0258C24.9874 13.0258 24.4141 13.5985 24.4141 14.3054C24.4141 15.0121 24.9874 15.5854 25.6941 15.5854C26.4008 15.5854 26.9741 15.0121 26.9741 14.3054C26.9741 13.5987 26.4008 13.0254 25.6941 13.0254V13.0258ZM14.5225 19.9993C14.5225 16.9742 16.975 14.5216 20.0001 14.5215C23.0252 14.5215 25.4772 16.9742 25.4772 19.9993C25.4772 23.0245 23.0254 25.476 20.0003 25.476C16.9752 25.476 14.5225 23.0245 14.5225 19.9993Z" fill="#69A6AB"/>
<path fill-rule="evenodd" clip-rule="evenodd" d="M20.0009 16.4443C21.9645 16.4443 23.5565 18.0361 23.5565 19.9999C23.5565 21.9635 21.9645 23.5555 20.0009 23.5555C18.0371 23.5555 16.4453 21.9635 16.4453 19.9999C16.4453 18.0361 18.0371 16.4443 20.0009 16.4443V16.4443Z" stroke="#69A6AB"/>
</svg>
